<svg width="807" height="85" viewBox="0 0 807 85" fill="none" xmlns="http://www.w3.org/2000/svg">
<rect x="0.5" y="0.5" width="806" height="84" rx="42" stroke="url(#paint0_linear_389_57)"/>
<path d="M340.335 54V31.28H341.967V52.528H355.535V54H340.335ZM365.021 54.32C363.848 54.32 362.76 54.096 361.757 53.648C360.754 53.1787 359.88 52.5493 359.133 51.76C358.408 50.9493 357.832 50.0213 357.405 48.976C357 47.9093 356.797 46.7893 356.797 45.616C356.797 44.0373 357.149 42.608 357.853 41.328C358.557 40.048 359.528 39.024 360.765 38.256C362.002 37.4667 363.389 37.072 364.925 37.072C366.504 37.072 367.901 37.4667 369.117 38.256C370.333 39.0453 371.293 40.0907 371.997 41.392C372.722 42.672 373.085 44.08 373.085 45.616C373.085 45.744 373.085 45.872 373.085 46C373.085 46.128 373.074 46.2347 373.053 46.32H358.461C358.546 47.5787 358.898 48.72 359.517 49.744C360.136 50.768 360.925 51.5787 361.885 52.176C362.866 52.752 363.933 53.04 365.085 53.04C366.237 53.04 367.325 52.7413 368.349 52.144C369.373 51.5467 370.088 50.7787 370.493 49.84L371.901 50.224C371.581 51.0133 371.069 51.7173 370.365 52.336C369.682 52.9547 368.872 53.4453 367.933 53.808C367.016 54.1493 366.045 54.32 365.021 54.32ZM358.397 45.072H371.549C371.464 43.7707 371.122 42.6187 370.525 41.616C369.928 40.6133 369.138 39.824 368.157 39.248C367.197 38.672 366.13 38.384 364.957 38.384C363.784 38.384 362.717 38.672 361.757 39.248C360.797 39.824 360.018 40.6133 359.421 41.616C358.824 42.6187 358.482 43.7707 358.397 45.072ZM383.904 53.2C383.798 53.2427 383.584 53.3493 383.264 53.52C382.944 53.6907 382.539 53.8507 382.048 54C381.558 54.128 381.014 54.192 380.416 54.192C379.84 54.192 379.296 54.0853 378.784 53.872C378.294 53.6373 377.899 53.296 377.6 52.848C377.302 52.4 377.152 51.856 377.152 51.216V38.672H374.816V37.36H377.152V31.664H378.752V37.36H382.624V38.672H378.752V50.832C378.795 51.4507 379.019 51.92 379.424 52.24C379.83 52.5387 380.299 52.688 380.832 52.688C381.494 52.688 382.07 52.5813 382.56 52.368C383.051 52.1333 383.339 51.984 383.424 51.92L383.904 53.2ZM385.069 36.72L385.517 33.584H384.941V30.64H386.573V33.584L385.933 36.72H385.069ZM394.603 54.32C393.281 54.32 392.054 54.096 390.923 53.648C389.793 53.2 388.801 52.5173 387.947 51.6L388.683 50.48C389.601 51.3547 390.529 51.9947 391.467 52.4C392.406 52.784 393.43 52.976 394.539 52.976C395.969 52.976 397.121 52.6773 397.995 52.08C398.891 51.4827 399.339 50.6507 399.339 49.584C399.339 48.8587 399.126 48.304 398.699 47.92C398.294 47.5147 397.697 47.1947 396.907 46.96C396.139 46.704 395.201 46.4373 394.091 46.16C392.961 45.8613 392.001 45.552 391.211 45.232C390.443 44.912 389.867 44.496 389.483 43.984C389.099 43.472 388.907 42.7787 388.907 41.904C388.907 40.816 389.174 39.92 389.707 39.216C390.262 38.4907 390.998 37.9573 391.915 37.616C392.854 37.2533 393.889 37.072 395.019 37.072C396.321 37.072 397.451 37.2853 398.411 37.712C399.393 38.1387 400.139 38.704 400.651 39.408L399.787 40.432C399.254 39.7493 398.561 39.248 397.707 38.928C396.854 38.5867 395.915 38.416 394.891 38.416C394.123 38.416 393.398 38.5227 392.715 38.736C392.033 38.9493 391.478 39.3013 391.051 39.792C390.646 40.2613 390.443 40.9013 390.443 41.712C390.443 42.352 390.593 42.8533 390.891 43.216C391.211 43.5787 391.681 43.8773 392.299 44.112C392.918 44.3253 393.686 44.56 394.603 44.816C395.905 45.136 397.025 45.4667 397.963 45.808C398.902 46.1493 399.627 46.5973 400.139 47.152C400.651 47.6853 400.907 48.4427 400.907 49.424C400.907 50.9387 400.331 52.1333 399.179 53.008C398.027 53.8827 396.502 54.32 394.603 54.32ZM428.301 32.752H419.981V54H418.349V32.752H410.029V31.28H428.301V32.752ZM426.573 49.2C426.573 48.1973 426.872 47.3333 427.469 46.608C428.066 45.8613 428.888 45.2853 429.933 44.88C430.978 44.4533 432.184 44.24 433.549 44.24C434.402 44.24 435.288 44.3147 436.205 44.464C437.122 44.6133 437.944 44.816 438.669 45.072V43.504C438.669 41.968 438.221 40.7413 437.325 39.824C436.45 38.9067 435.234 38.448 433.677 38.448C432.845 38.448 431.981 38.6187 431.085 38.96C430.189 39.3013 429.272 39.792 428.333 40.432L427.661 39.28C428.749 38.5547 429.794 38.0107 430.797 37.648C431.821 37.264 432.834 37.072 433.837 37.072C435.821 37.072 437.389 37.6587 438.541 38.832C439.693 40.0053 440.269 41.6053 440.269 43.632V51.888C440.269 52.144 440.322 52.336 440.429 52.464C440.557 52.592 440.738 52.6667 440.973 52.688V54C440.781 54.0213 440.621 54.032 440.493 54.032C440.365 54.032 440.258 54.032 440.173 54.032C439.768 53.968 439.448 53.7973 439.213 53.52C439 53.2427 438.882 52.9333 438.861 52.592V51.28C438.093 52.24 437.101 52.9867 435.885 53.52C434.69 54.0533 433.432 54.32 432.109 54.32C431.064 54.32 430.114 54.096 429.261 53.648C428.429 53.2 427.768 52.592 427.277 51.824C426.808 51.0347 426.573 50.16 426.573 49.2ZM438.029 50.576C438.242 50.2987 438.402 50.032 438.509 49.776C438.616 49.52 438.669 49.2853 438.669 49.072V46.32C437.901 46.0213 437.101 45.7973 436.269 45.648C435.437 45.4987 434.584 45.424 433.709 45.424C432.045 45.424 430.69 45.7547 429.645 46.416C428.621 47.0773 428.109 47.9733 428.109 49.104C428.109 49.808 428.29 50.4587 428.653 51.056C429.016 51.6533 429.517 52.1333 430.157 52.496C430.818 52.8587 431.576 53.04 432.429 53.04C433.624 53.04 434.722 52.816 435.725 52.368C436.749 51.8987 437.517 51.3013 438.029 50.576ZM445.265 30.64H446.897V50.704C446.897 51.472 447.057 52.0053 447.377 52.304C447.697 52.5813 448.113 52.72 448.625 52.72C448.966 52.72 449.318 52.688 449.681 52.624C450.043 52.56 450.363 52.4747 450.641 52.368L450.961 53.68C450.598 53.808 450.15 53.9253 449.617 54.032C449.083 54.1387 448.625 54.192 448.241 54.192C447.345 54.192 446.619 53.9253 446.065 53.392C445.531 52.8373 445.265 52.1013 445.265 51.184V30.64ZM465.45 54L458.954 45.104L455.018 48.72V54H453.418V30.64H455.018V46.928L465.162 37.392H466.986L460.042 44.144L467.21 54H465.45Z" fill="white"/>
<defs>
<linearGradient id="paint0_linear_389_57" x1="807" y1="42.5" x2="0" y2="42.5" gradientUnits="userSpaceOnUse">
<stop stop-color="white"/>
<stop offset="0.5"/>
<stop offset="1" stop-color="white"/>
</linearGradient>
</defs>
</svg>
